<?xml version="1.0" encoding="iso-8859-1"?>
<!-- Generator: Adobe Illustrator 19.0.0, SVG Export Plug-In . SVG Version: 6.00 Build 0)  -->
<svg version="1.1" id="Layer_1" xmlns="http://www.w3.org/2000/svg" xmlns:xlink="http://www.w3.org/1999/xlink" x="0px" y="0px"
	 viewBox="0 0 414.764 414.764" style="enable-background:new 0 0 414.764 414.764;" xml:space="preserve">
<g>
	<g>
		<g>
			<path d="M186.812,263.764H67.95c-4.142,0-7.5,3.358-7.5,7.5v98c0,4.142,3.358,7.5,7.5,7.5h118.862c4.142,0,7.5-3.358,7.5-7.5v-98
				C194.312,267.122,190.954,263.764,186.812,263.764z M179.312,361.764H75.45v-47h27.431v24.5c0,4.142,3.358,7.5,7.5,7.5h34
				c4.142,0,7.5-3.358,7.5-7.5v-24.5h27.431V361.764z M117.881,331.764v-17h19v17H117.881z M179.312,299.764h-34.931h-34H75.45v-21
				h103.862V299.764z"/>
			<path d="M346.812,263.764H227.95c-4.142,0-7.5,3.358-7.5,7.5v98c0,4.142,3.358,7.5,7.5,7.5h118.862c4.142,0,7.5-3.358,7.5-7.5
				v-98C354.312,267.122,350.954,263.764,346.812,263.764z M235.45,278.764h103.862v21h-34.931h-34H235.45V278.764z
				 M296.881,314.764v17h-19v-17H296.881z M339.312,361.764H235.45v-47h27.431v24.5c0,4.142,3.358,7.5,7.5,7.5h34
				c4.142,0,7.5-3.358,7.5-7.5v-24.5h27.431V361.764z"/>
			<path d="M393.381,201.764h-8.5V70.144c0-4.142-3.358-7.5-7.5-7.5H322.08c-2.789-4.301-5.821-8.465-9.06-12.407
				C287.4,19.004,249.715,0.761,209.366,0.033c-0.102-0.007-0.204-0.012-0.306-0.016c-0.552-0.017-1.123-0.025-1.679-0.005
				c-0.545-0.021-1.123-0.012-1.679,0.005c-0.098,0.003-0.195,0.008-0.292,0.015c-40.308,0.709-78.022,18.954-103.663,50.2
				c-3.244,3.947-6.276,8.112-9.065,12.412h-55.3c-4.142,0-7.5,3.358-7.5,7.5v131.62h-8.5c-4.142,0-7.5,3.358-7.5,7.5
				c0,4.142,3.358,7.5,7.5,7.5h8.5v159.48c0,21.24,17.28,38.52,38.52,38.52h277.961c21.24,0,38.52-17.28,38.52-38.52v-159.48h8.5
				c4.142,0,7.5-3.358,7.5-7.5C400.883,205.122,397.523,201.764,393.381,201.764z M305.521,65.064
				c2.128,2.903,4.146,5.893,6.001,8.963c10.209,16.871,16.134,35.982,17.338,55.679h-39.67
				c-0.594-18.333-3.356-36.296-8.105-52.699C289.998,73.599,298.173,69.602,305.521,65.064z M328.867,144.706
				c-0.724,12.056-3.197,23.802-7.384,35.058h-36.172c2.193-11.326,3.501-23.056,3.881-35.058H328.867z M295.836,53.414
				c-5.916,3.5-12.454,6.623-19.528,9.36c-5.854-15.278-13.323-28.158-21.947-38.198C269.902,31.121,284.039,40.884,295.836,53.414z
				 M215.371,16.032c18.513,4.451,35.714,23.295,46.698,51.511c-14.536,4.129-30.422,6.585-46.698,7.22V16.032z M215.371,89.766
				c17.915-0.655,35.446-3.373,51.484-7.992c4.259,14.906,6.754,31.23,7.331,47.932h-58.815V89.766z M215.372,144.706h58.809
				c-0.408,12.048-1.787,23.794-4.145,35.058h-54.664V144.706z M200.371,15.806v58.987c-16.618-0.573-32.852-3.038-47.678-7.25
				C163.863,38.836,181.479,19.821,200.371,15.806z M140.576,129.706c0.577-16.701,3.071-33.024,7.331-47.932
				c16.329,4.703,34.209,7.434,52.464,8.024v39.908H140.576z M200.371,144.706v35.058h-55.645
				c-2.358-11.264-3.737-23.01-4.145-35.058H200.371z M160.396,24.577c-8.625,10.041-16.093,22.919-21.944,38.196
				c-7.073-2.737-13.611-5.859-19.526-9.359C130.726,40.887,144.863,31.123,160.396,24.577z M103.239,74.024
				c1.854-3.068,3.872-6.057,6-8.96c7.348,4.538,15.523,8.535,24.436,11.943c-4.749,16.404-7.511,34.367-8.105,52.699H85.9
				C87.106,110.009,93.03,90.898,103.239,74.024z M125.57,144.706c0.38,12.002,1.689,23.732,3.881,35.058H93.279
				c-4.187-11.256-6.66-23.002-7.384-35.058H125.57z M44.881,77.644h39.371c-8.913,18.493-13.591,38.842-13.591,59.56
				c0,14.613,2.266,28.881,6.732,42.56H44.881V77.644z M346.361,399.764H68.4c-12.969,0-23.52-10.551-23.52-23.52v-181.48h325
				v181.48h0.001C369.881,389.213,359.33,399.764,346.361,399.764z M369.881,179.764h-32.512c4.466-13.678,6.732-27.947,6.732-42.56
				c0-20.718-4.678-41.068-13.591-59.56h39.371V179.764z"/>
		</g>
	</g>
</g>
<g>
</g>
<g>
</g>
<g>
</g>
<g>
</g>
<g>
</g>
<g>
</g>
<g>
</g>
<g>
</g>
<g>
</g>
<g>
</g>
<g>
</g>
<g>
</g>
<g>
</g>
<g>
</g>
<g>
</g>
</svg>
